<?xml version="1.0"?>
<svg xmlns="http://www.w3.org/2000/svg" viewBox="0 0 64 64" width="512" height="512"><g id="Mailbox"><path d="M49,2H22a.982.982,0,0,0-.352.071A13.012,13.012,0,0,0,10.051,14H3a1,1,0,0,0-1,1V33a1,1,0,0,0,1,1H9.382L7.553,37.658A3,3,0,0,0,10.236,42H29.764A3.013,3.013,0,0,0,31,41.735V61a1,1,0,0,0,1,1H42a1,1,0,0,0,1-1V34H61a1,1,0,0,0,1-1V15A13.015,13.015,0,0,0,49,2ZM23,4A10.984,10.984,0,0,1,34,15V32H30V15a1,1,0,0,0-1-1H12.051A11.01,11.01,0,0,1,23,4ZM5.5,32l7.448-6.655L14,26.289a3,3,0,0,0,4,0l1.054-.944L26.5,32Zm15.058-8L28,17.342V30.656Zm-3.888.794a1,1,0,0,1-1.334,0L5.5,16h21ZM11.445,24,4,30.656V17.342ZM29.764,40H10.236a1,1,0,0,1-.894-1.447L11.618,34H33.382l-2.724,5.447A1,1,0,0,1,29.764,40ZM41,60H33V39.236L35.618,34H41ZM60,32H36V15A12.915,12.915,0,0,0,29.924,4H49A11.013,11.013,0,0,1,60,15Z"/></g></svg>
